<?xml version="1.0" encoding="UTF-8"?>
<svg xmlns="http://www.w3.org/2000/svg" width="1832" height="464" viewBox="0 0 1832 464" font-family="Inter, system-ui, -apple-system, Segoe UI, sans-serif">
  <rect width="100%" height="100%" fill="#FBFBFD"/>
  <text x="44" y="30" font-family="Inter, system-ui, -apple-system, Segoe UI, sans-serif" font-size="21" font-weight="800" fill="#0B132B">Dependency Layers — QuickDeliver (Lebanon)</text>
  <text x="44" y="49" font-family="Inter, system-ui, -apple-system, Segoe UI, sans-serif" font-size="12" fill="#6B7280">Columns = layers (waves). Arrows = "unblocks". A task goes ready only when ALL its incoming arrows are done. Branding &amp; QA are human gates.</text>
  <g><line x1="132" y1="104" x2="132" y2="390" stroke="#E5E7EB" stroke-width="1" stroke-dasharray="3 5"/><text x="132" y="74" text-anchor="middle" font-family="Inter, system-ui, -apple-system, Segoe UI, sans-serif" font-size="11" font-weight="800" fill="#6B7280" letter-spacing="0.5">LAYER 0</text><text x="132" y="92" text-anchor="middle" font-family="Inter, system-ui, -apple-system, Segoe UI, sans-serif" font-size="12.5" font-weight="700" fill="#111827">Research</text><line x1="356" y1="104" x2="356" y2="390" stroke="#E5E7EB" stroke-width="1" stroke-dasharray="3 5"/><text x="356" y="74" text-anchor="middle" font-family="Inter, system-ui, -apple-system, Segoe UI, sans-serif" font-size="11" font-weight="800" fill="#6B7280" letter-spacing="0.5">LAYER 1</text><text x="356" y="92" text-anchor="middle" font-family="Inter, system-ui, -apple-system, Segoe UI, sans-serif" font-size="12.5" font-weight="700" fill="#111827">Branding · gate</text><line x1="580" y1="104" x2="580" y2="390" stroke="#E5E7EB" stroke-width="1" stroke-dasharray="3 5"/><text x="580" y="74" text-anchor="middle" font-family="Inter, system-ui, -apple-system, Segoe UI, sans-serif" font-size="11" font-weight="800" fill="#6B7280" letter-spacing="0.5">LAYER 2</text><text x="580" y="92" text-anchor="middle" font-family="Inter, system-ui, -apple-system, Segoe UI, sans-serif" font-size="12.5" font-weight="700" fill="#111827">Stack / Media / Copy</text><line x1="804" y1="104" x2="804" y2="390" stroke="#E5E7EB" stroke-width="1" stroke-dasharray="3 5"/><text x="804" y="74" text-anchor="middle" font-family="Inter, system-ui, -apple-system, Segoe UI, sans-serif" font-size="11" font-weight="800" fill="#6B7280" letter-spacing="0.5">LAYER 3</text><text x="804" y="92" text-anchor="middle" font-family="Inter, system-ui, -apple-system, Segoe UI, sans-serif" font-size="12.5" font-weight="700" fill="#111827">Schema + Design sys</text><line x1="1028" y1="104" x2="1028" y2="390" stroke="#E5E7EB" stroke-width="1" stroke-dasharray="3 5"/><text x="1028" y="74" text-anchor="middle" font-family="Inter, system-ui, -apple-system, Segoe UI, sans-serif" font-size="11" font-weight="800" fill="#6B7280" letter-spacing="0.5">LAYER 4</text><text x="1028" y="92" text-anchor="middle" font-family="Inter, system-ui, -apple-system, Segoe UI, sans-serif" font-size="12.5" font-weight="700" fill="#111827">Auth</text><line x1="1252" y1="104" x2="1252" y2="390" stroke="#E5E7EB" stroke-width="1" stroke-dasharray="3 5"/><text x="1252" y="74" text-anchor="middle" font-family="Inter, system-ui, -apple-system, Segoe UI, sans-serif" font-size="11" font-weight="800" fill="#6B7280" letter-spacing="0.5">LAYER 5</text><text x="1252" y="92" text-anchor="middle" font-family="Inter, system-ui, -apple-system, Segoe UI, sans-serif" font-size="12.5" font-weight="700" fill="#111827">Screens</text><line x1="1476" y1="104" x2="1476" y2="390" stroke="#E5E7EB" stroke-width="1" stroke-dasharray="3 5"/><text x="1476" y="74" text-anchor="middle" font-family="Inter, system-ui, -apple-system, Segoe UI, sans-serif" font-size="11" font-weight="800" fill="#6B7280" letter-spacing="0.5">LAYER 6</text><text x="1476" y="92" text-anchor="middle" font-family="Inter, system-ui, -apple-system, Segoe UI, sans-serif" font-size="12.5" font-weight="700" fill="#111827">Integrate + Deploy</text><line x1="1700" y1="104" x2="1700" y2="390" stroke="#E5E7EB" stroke-width="1" stroke-dasharray="3 5"/><text x="1700" y="74" text-anchor="middle" font-family="Inter, system-ui, -apple-system, Segoe UI, sans-serif" font-size="11" font-weight="800" fill="#6B7280" letter-spacing="0.5">LAYER 7</text><text x="1700" y="92" text-anchor="middle" font-family="Inter, system-ui, -apple-system, Segoe UI, sans-serif" font-size="12.5" font-weight="700" fill="#111827">QA · gate</text></g>
  <g><path d="M 220.0 236.0 C 242.5 236.0, 242.5 236.0, 265.0 236.0" fill="none" stroke="#457B9D" stroke-width="2.4" stroke-opacity="0.5" stroke-linecap="round"/><path d="M 265.0 236.0 l -8 -4.5 l 0 9 z" fill="#457B9D" fill-opacity="0.85"/><path d="M 220.0 236.0 C 354.5 236.0, 354.5 236.0, 489.0 236.0" fill="none" stroke="#457B9D" stroke-width="1.7" stroke-opacity="0.5" stroke-linecap="round"/><path d="M 489.0 236.0 l -8 -4.5 l 0 9 z" fill="#457B9D" fill-opacity="0.85"/><path d="M 444.0 236.0 C 690.5 236.0, 690.5 236.0, 937.0 236.0" fill="none" stroke="#E9B44C" stroke-width="1.7" stroke-opacity="0.5" stroke-linecap="round"/><path d="M 937.0 236.0 l -8 -4.5 l 0 9 z" fill="#E9B44C" fill-opacity="0.85"/><path d="M 444.0 236.0 C 466.5 236.0, 466.5 156.0, 489.0 156.0" fill="none" stroke="#E9B44C" stroke-width="1.7" stroke-opacity="0.5" stroke-linecap="round"/><path d="M 489.0 156.0 l -8 -4.5 l 0 9 z" fill="#E9B44C" fill-opacity="0.85"/><path d="M 444.0 236.0 C 578.5 236.0, 578.5 196.0, 713.0 196.0" fill="none" stroke="#E9B44C" stroke-width="1.7" stroke-opacity="0.5" stroke-linecap="round"/><path d="M 713.0 196.0 l -8 -4.5 l 0 9 z" fill="#E9B44C" fill-opacity="0.85"/><path d="M 444.0 236.0 C 466.5 236.0, 466.5 316.0, 489.0 316.0" fill="none" stroke="#E9B44C" stroke-width="1.7" stroke-opacity="0.5" stroke-linecap="round"/><path d="M 489.0 316.0 l -8 -4.5 l 0 9 z" fill="#E9B44C" fill-opacity="0.85"/><path d="M 668.0 236.0 C 690.5 236.0, 690.5 276.0, 713.0 276.0" fill="none" stroke="#2A9D8F" stroke-width="1.7" stroke-opacity="0.5" stroke-linecap="round"/><path d="M 713.0 276.0 l -8 -4.5 l 0 9 z" fill="#2A9D8F" fill-opacity="0.85"/><path d="M 668.0 236.0 C 690.5 236.0, 690.5 196.0, 713.0 196.0" fill="none" stroke="#2A9D8F" stroke-width="1.7" stroke-opacity="0.5" stroke-linecap="round"/><path d="M 713.0 196.0 l -8 -4.5 l 0 9 z" fill="#2A9D8F" fill-opacity="0.85"/><path d="M 892.0 276.0 C 914.5 276.0, 914.5 236.0, 937.0 236.0" fill="none" stroke="#2D6A4F" stroke-width="1.7" stroke-opacity="0.5" stroke-linecap="round"/><path d="M 937.0 236.0 l -8 -4.5 l 0 9 z" fill="#2D6A4F" fill-opacity="0.85"/><path d="M 892.0 276.0 C 1026.5 276.0, 1026.5 196.0, 1161.0 196.0" fill="none" stroke="#2D6A4F" stroke-width="1.7" stroke-opacity="0.5" stroke-linecap="round"/><path d="M 1161.0 196.0 l -8 -4.5 l 0 9 z" fill="#2D6A4F" fill-opacity="0.85"/><path d="M 892.0 276.0 C 1026.5 276.0, 1026.5 276.0, 1161.0 276.0" fill="none" stroke="#2D6A4F" stroke-width="1.7" stroke-opacity="0.5" stroke-linecap="round"/><path d="M 1161.0 276.0 l -8 -4.5 l 0 9 z" fill="#2D6A4F" fill-opacity="0.85"/><path d="M 892.0 276.0 C 1138.5 276.0, 1138.5 236.0, 1385.0 236.0" fill="none" stroke="#2D6A4F" stroke-width="1.7" stroke-opacity="0.5" stroke-linecap="round"/><path d="M 1385.0 236.0 l -8 -4.5 l 0 9 z" fill="#2D6A4F" fill-opacity="0.85"/><path d="M 1116.0 236.0 C 1138.5 236.0, 1138.5 196.0, 1161.0 196.0" fill="none" stroke="#7B2D8E" stroke-width="1.7" stroke-opacity="0.5" stroke-linecap="round"/><path d="M 1161.0 196.0 l -8 -4.5 l 0 9 z" fill="#7B2D8E" fill-opacity="0.85"/><path d="M 1116.0 236.0 C 1138.5 236.0, 1138.5 276.0, 1161.0 276.0" fill="none" stroke="#7B2D8E" stroke-width="1.7" stroke-opacity="0.5" stroke-linecap="round"/><path d="M 1161.0 276.0 l -8 -4.5 l 0 9 z" fill="#7B2D8E" fill-opacity="0.85"/><path d="M 668.0 156.0 C 914.5 156.0, 914.5 196.0, 1161.0 196.0" fill="none" stroke="#E07A5F" stroke-width="1.7" stroke-opacity="0.5" stroke-linecap="round"/><path d="M 1161.0 196.0 l -8 -4.5 l 0 9 z" fill="#E07A5F" fill-opacity="0.85"/><path d="M 892.0 196.0 C 1026.5 196.0, 1026.5 196.0, 1161.0 196.0" fill="none" stroke="#D64045" stroke-width="1.7" stroke-opacity="0.5" stroke-linecap="round"/><path d="M 1161.0 196.0 l -8 -4.5 l 0 9 z" fill="#D64045" fill-opacity="0.85"/><path d="M 892.0 196.0 C 1026.5 196.0, 1026.5 276.0, 1161.0 276.0" fill="none" stroke="#D64045" stroke-width="1.7" stroke-opacity="0.5" stroke-linecap="round"/><path d="M 1161.0 276.0 l -8 -4.5 l 0 9 z" fill="#D64045" fill-opacity="0.85"/><path d="M 1340.0 196.0 C 1362.5 196.0, 1362.5 236.0, 1385.0 236.0" fill="none" stroke="#D64045" stroke-width="1.7" stroke-opacity="0.5" stroke-linecap="round"/><path d="M 1385.0 236.0 l -8 -4.5 l 0 9 z" fill="#D64045" fill-opacity="0.85"/><path d="M 1340.0 196.0 C 1474.5 196.0, 1474.5 236.0, 1609.0 236.0" fill="none" stroke="#D64045" stroke-width="2.4" stroke-opacity="0.5" stroke-linecap="round"/><path d="M 1609.0 236.0 l -8 -4.5 l 0 9 z" fill="#D64045" fill-opacity="0.85"/><path d="M 1340.0 276.0 C 1474.5 276.0, 1474.5 236.0, 1609.0 236.0" fill="none" stroke="#D64045" stroke-width="2.4" stroke-opacity="0.5" stroke-linecap="round"/><path d="M 1609.0 236.0 l -8 -4.5 l 0 9 z" fill="#D64045" fill-opacity="0.85"/><path d="M 668.0 316.0 C 1138.5 316.0, 1138.5 236.0, 1609.0 236.0" fill="none" stroke="#C44D9B" stroke-width="2.4" stroke-opacity="0.5" stroke-linecap="round"/><path d="M 1609.0 236.0 l -8 -4.5 l 0 9 z" fill="#C44D9B" fill-opacity="0.85"/><path d="M 1564.0 236.0 C 1586.5 236.0, 1586.5 236.0, 1609.0 236.0" fill="none" stroke="#8B6F47" stroke-width="2.4" stroke-opacity="0.5" stroke-linecap="round"/><path d="M 1609.0 236.0 l -8 -4.5 l 0 9 z" fill="#8B6F47" fill-opacity="0.85"/></g>
  <g><g><rect x="44" y="214" width="176" height="44" rx="9" fill="#457B9D" stroke="#37627e" stroke-width="1"/><text x="132" y="240.5" text-anchor="middle" font-family="Inter, system-ui, -apple-system, Segoe UI, sans-serif" font-size="12.5" font-weight="700" fill="#fff">#1 Research</text></g><g><rect x="265" y="211" width="182" height="50" rx="11" fill="none" stroke="#af8739" stroke-width="2.5" stroke-dasharray="5 3"/><rect x="268" y="214" width="176" height="44" rx="9" fill="#E9B44C" stroke="#ba903d" stroke-width="1"/><text x="356" y="240.5" text-anchor="middle" font-family="Inter, system-ui, -apple-system, Segoe UI, sans-serif" font-size="12.5" font-weight="700" fill="#fff">#2 Branding</text><text x="438" y="207" text-anchor="end" font-family="Inter, system-ui, -apple-system, Segoe UI, sans-serif" font-size="9.5" font-weight="800" fill="#af8739">⛔ GATE</text></g><g><rect x="492" y="214" width="176" height="44" rx="9" fill="#2A9D8F" stroke="#227e72" stroke-width="1"/><text x="580" y="240.5" text-anchor="middle" font-family="Inter, system-ui, -apple-system, Segoe UI, sans-serif" font-size="12.5" font-weight="700" fill="#fff">#3 Stack</text></g><g><rect x="492" y="134" width="176" height="44" rx="9" fill="#E07A5F" stroke="#b3624c" stroke-width="1"/><text x="580" y="160.5" text-anchor="middle" font-family="Inter, system-ui, -apple-system, Segoe UI, sans-serif" font-size="12.5" font-weight="700" fill="#fff">#6 Media</text></g><g><rect x="492" y="294" width="176" height="44" rx="9" fill="#C44D9B" stroke="#9d3e7c" stroke-width="1"/><text x="580" y="320.5" text-anchor="middle" font-family="Inter, system-ui, -apple-system, Segoe UI, sans-serif" font-size="12.5" font-weight="700" fill="#fff">#10 Content</text></g><g><rect x="716" y="254" width="176" height="44" rx="9" fill="#2D6A4F" stroke="#24553f" stroke-width="1"/><text x="804" y="280.5" text-anchor="middle" font-family="Inter, system-ui, -apple-system, Segoe UI, sans-serif" font-size="12.5" font-weight="700" fill="#fff">#4 Database</text></g><g><rect x="716" y="174" width="176" height="44" rx="9" fill="#D64045" stroke="#ab3337" stroke-width="1"/><text x="804" y="200.5" text-anchor="middle" font-family="Inter, system-ui, -apple-system, Segoe UI, sans-serif" font-size="12.5" font-weight="700" fill="#fff">#7 Design system</text></g><g><rect x="940" y="214" width="176" height="44" rx="9" fill="#7B2D8E" stroke="#622472" stroke-width="1"/><text x="1028" y="240.5" text-anchor="middle" font-family="Inter, system-ui, -apple-system, Segoe UI, sans-serif" font-size="12.5" font-weight="700" fill="#fff">#5 Auth</text></g><g><rect x="1164" y="174" width="176" height="44" rx="9" fill="#D64045" stroke="#ab3337" stroke-width="1"/><text x="1252" y="200.5" text-anchor="middle" font-family="Inter, system-ui, -apple-system, Segoe UI, sans-serif" font-size="12.5" font-weight="700" fill="#fff">#8 Customer screens</text></g><g><rect x="1164" y="254" width="176" height="44" rx="9" fill="#D64045" stroke="#ab3337" stroke-width="1"/><text x="1252" y="280.5" text-anchor="middle" font-family="Inter, system-ui, -apple-system, Segoe UI, sans-serif" font-size="12.5" font-weight="700" fill="#fff">#9 Courier screens</text></g><g><rect x="1388" y="214" width="176" height="44" rx="9" fill="#8B6F47" stroke="#6f5939" stroke-width="1"/><text x="1476" y="240.5" text-anchor="middle" font-family="Inter, system-ui, -apple-system, Segoe UI, sans-serif" font-size="12.5" font-weight="700" fill="#fff">#11 Payments+Deploy</text></g><g><rect x="1609" y="211" width="182" height="50" rx="11" fill="none" stroke="#162841" stroke-width="2.5" stroke-dasharray="5 3"/><rect x="1612" y="214" width="176" height="44" rx="9" fill="#1D3557" stroke="#172a46" stroke-width="1"/><text x="1700" y="240.5" text-anchor="middle" font-family="Inter, system-ui, -apple-system, Segoe UI, sans-serif" font-size="12.5" font-weight="700" fill="#fff">#12 QA</text><text x="1782" y="207" text-anchor="end" font-family="Inter, system-ui, -apple-system, Segoe UI, sans-serif" font-size="9.5" font-weight="800" fill="#162841">⛔ GATE</text></g></g>
  <g><text x="44" y="406" font-family="Inter, system-ui, -apple-system, Segoe UI, sans-serif" font-size="11" font-weight="700" fill="#6B7280">DEPARTMENTS</text><rect x="44" y="413" width="12" height="12" rx="3" fill="#457B9D"/><text x="61" y="423" font-family="Inter, system-ui, -apple-system, Segoe UI, sans-serif" font-size="11.5" fill="#374151">research</text><rect x="138" y="413" width="12" height="12" rx="3" fill="#E9B44C"/><text x="155" y="423" font-family="Inter, system-ui, -apple-system, Segoe UI, sans-serif" font-size="11.5" fill="#374151">branding</text><rect x="232" y="413" width="12" height="12" rx="3" fill="#2A9D8F"/><text x="249" y="423" font-family="Inter, system-ui, -apple-system, Segoe UI, sans-serif" font-size="11.5" fill="#374151">stack</text><rect x="305" y="413" width="12" height="12" rx="3" fill="#E07A5F"/><text x="322" y="423" font-family="Inter, system-ui, -apple-system, Segoe UI, sans-serif" font-size="11.5" fill="#374151">media</text><rect x="378" y="413" width="12" height="12" rx="3" fill="#C44D9B"/><text x="395" y="423" font-family="Inter, system-ui, -apple-system, Segoe UI, sans-serif" font-size="11.5" fill="#374151">content</text><rect x="465" y="413" width="12" height="12" rx="3" fill="#2D6A4F"/><text x="482" y="423" font-family="Inter, system-ui, -apple-system, Segoe UI, sans-serif" font-size="11.5" fill="#374151">database</text><rect x="559" y="413" width="12" height="12" rx="3" fill="#D64045"/><text x="576" y="423" font-family="Inter, system-ui, -apple-system, Segoe UI, sans-serif" font-size="11.5" fill="#374151">frontend</text><rect x="653" y="413" width="12" height="12" rx="3" fill="#7B2D8E"/><text x="670" y="423" font-family="Inter, system-ui, -apple-system, Segoe UI, sans-serif" font-size="11.5" fill="#374151">auth</text><rect x="719" y="413" width="12" height="12" rx="3" fill="#8B6F47"/><text x="736" y="423" font-family="Inter, system-ui, -apple-system, Segoe UI, sans-serif" font-size="11.5" fill="#374151">integration</text><rect x="834" y="413" width="12" height="12" rx="3" fill="#1D3557"/><text x="851" y="423" font-family="Inter, system-ui, -apple-system, Segoe UI, sans-serif" font-size="11.5" fill="#374151">qa</text></g>
</svg>