<?xml version="1.0" encoding="UTF-8"?>
<svg xmlns="http://www.w3.org/2000/svg" width="895" height="2442" viewBox="0 0 895 2442" font-family="Inter, system-ui, -apple-system, Segoe UI, Roboto, sans-serif">
  <rect width="100%" height="100%" fill="#FBFBFD"/>
  <text x="40" y="30" font-family="Inter, system-ui, -apple-system, Segoe UI, Roboto, sans-serif" font-size="22" font-weight="800" fill="#0B132B">Agency Pipeline Engine — Architecture</text>
  <text x="40" y="44" font-family="Inter, system-ui, -apple-system, Segoe UI, Roboto, sans-serif" font-size="12.5" fill="#6B7280">Brief -&gt; Planner -&gt; task DAG -&gt; department agents -&gt; Supabase board.  Database is the engine; scheduler is stateless; fully restart-safe.</text>
  <g><path d="M 321.6 1211.0 C 349.6 1211.0, 349.6 158.0, 377.6 158.0" fill="none" stroke="#D64045" stroke-width="2.4" stroke-opacity="0.85" stroke-linecap="round"/>
<path d="M 569.2 158.0 C 601.4 158.0, 601.4 77.0, 633.6 77.0" fill="none" stroke="#eda9ab" stroke-width="1.6" stroke-opacity="0.6" stroke-linecap="round"/>
<path d="M 569.2 158.0 C 601.4 158.0, 601.4 131.0, 633.6 131.0" fill="none" stroke="#eda9ab" stroke-width="1.6" stroke-opacity="0.6" stroke-linecap="round"/>
<path d="M 569.2 158.0 C 601.4 158.0, 601.4 185.0, 633.6 185.0" fill="none" stroke="#eda9ab" stroke-width="1.6" stroke-opacity="0.6" stroke-linecap="round"/>
<path d="M 569.2 158.0 C 601.4 158.0, 601.4 239.0, 633.6 239.0" fill="none" stroke="#eda9ab" stroke-width="1.6" stroke-opacity="0.6" stroke-linecap="round"/>
<path d="M 321.6 1211.0 C 349.6 1211.0, 349.6 401.0, 377.6 401.0" fill="none" stroke="#1D3557" stroke-width="2.4" stroke-opacity="0.85" stroke-linecap="round"/>
<path d="M 527.2 401.0 C 580.4 401.0, 580.4 293.0, 633.6 293.0" fill="none" stroke="#99a4b3" stroke-width="1.6" stroke-opacity="0.6" stroke-linecap="round"/>
<path d="M 527.2 401.0 C 580.4 401.0, 580.4 347.0, 633.6 347.0" fill="none" stroke="#99a4b3" stroke-width="1.6" stroke-opacity="0.6" stroke-linecap="round"/>
<path d="M 527.2 401.0 C 580.4 401.0, 580.4 401.0, 633.6 401.0" fill="none" stroke="#99a4b3" stroke-width="1.6" stroke-opacity="0.6" stroke-linecap="round"/>
<path d="M 527.2 401.0 C 580.4 401.0, 580.4 455.0, 633.6 455.0" fill="none" stroke="#99a4b3" stroke-width="1.6" stroke-opacity="0.6" stroke-linecap="round"/>
<path d="M 527.2 401.0 C 580.4 401.0, 580.4 509.0, 633.6 509.0" fill="none" stroke="#99a4b3" stroke-width="1.6" stroke-opacity="0.6" stroke-linecap="round"/>
<path d="M 321.6 1211.0 C 349.6 1211.0, 349.6 644.0, 377.6 644.0" fill="none" stroke="#E9B44C" stroke-width="2.4" stroke-opacity="0.85" stroke-linecap="round"/>
<path d="M 577.6 644.0 C 605.6 644.0, 605.6 563.0, 633.6 563.0" fill="none" stroke="#f5ddae" stroke-width="1.6" stroke-opacity="0.6" stroke-linecap="round"/>
<path d="M 577.6 644.0 C 605.6 644.0, 605.6 617.0, 633.6 617.0" fill="none" stroke="#f5ddae" stroke-width="1.6" stroke-opacity="0.6" stroke-linecap="round"/>
<path d="M 577.6 644.0 C 605.6 644.0, 605.6 671.0, 633.6 671.0" fill="none" stroke="#f5ddae" stroke-width="1.6" stroke-opacity="0.6" stroke-linecap="round"/>
<path d="M 577.6 644.0 C 605.6 644.0, 605.6 725.0, 633.6 725.0" fill="none" stroke="#f5ddae" stroke-width="1.6" stroke-opacity="0.6" stroke-linecap="round"/>
<path d="M 321.6 1211.0 C 349.6 1211.0, 349.6 860.0, 377.6 860.0" fill="none" stroke="#2D6A4F" stroke-width="2.4" stroke-opacity="0.85" stroke-linecap="round"/>
<path d="M 552.4 860.0 C 593.0 860.0, 593.0 779.0, 633.6 779.0" fill="none" stroke="#a1bcb0" stroke-width="1.6" stroke-opacity="0.6" stroke-linecap="round"/>
<path d="M 552.4 860.0 C 593.0 860.0, 593.0 833.0, 633.6 833.0" fill="none" stroke="#a1bcb0" stroke-width="1.6" stroke-opacity="0.6" stroke-linecap="round"/>
<path d="M 552.4 860.0 C 593.0 860.0, 593.0 887.0, 633.6 887.0" fill="none" stroke="#a1bcb0" stroke-width="1.6" stroke-opacity="0.6" stroke-linecap="round"/>
<path d="M 552.4 860.0 C 593.0 860.0, 593.0 941.0, 633.6 941.0" fill="none" stroke="#a1bcb0" stroke-width="1.6" stroke-opacity="0.6" stroke-linecap="round"/>
<path d="M 321.6 1211.0 C 349.6 1211.0, 349.6 1103.0, 377.6 1103.0" fill="none" stroke="#7B2D8E" stroke-width="2.4" stroke-opacity="0.85" stroke-linecap="round"/>
<path d="M 560.8 1103.0 C 597.2 1103.0, 597.2 995.0, 633.6 995.0" fill="none" stroke="#c4a1cc" stroke-width="1.6" stroke-opacity="0.6" stroke-linecap="round"/>
<path d="M 560.8 1103.0 C 597.2 1103.0, 597.2 1049.0, 633.6 1049.0" fill="none" stroke="#c4a1cc" stroke-width="1.6" stroke-opacity="0.6" stroke-linecap="round"/>
<path d="M 560.8 1103.0 C 597.2 1103.0, 597.2 1103.0, 633.6 1103.0" fill="none" stroke="#c4a1cc" stroke-width="1.6" stroke-opacity="0.6" stroke-linecap="round"/>
<path d="M 560.8 1103.0 C 597.2 1103.0, 597.2 1157.0, 633.6 1157.0" fill="none" stroke="#c4a1cc" stroke-width="1.6" stroke-opacity="0.6" stroke-linecap="round"/>
<path d="M 560.8 1103.0 C 597.2 1103.0, 597.2 1211.0, 633.6 1211.0" fill="none" stroke="#c4a1cc" stroke-width="1.6" stroke-opacity="0.6" stroke-linecap="round"/>
<path d="M 321.6 1211.0 C 349.6 1211.0, 349.6 1373.0, 377.6 1373.0" fill="none" stroke="#E07A5F" stroke-width="2.4" stroke-opacity="0.85" stroke-linecap="round"/>
<path d="M 535.6 1373.0 C 584.6 1373.0, 584.6 1265.0, 633.6 1265.0" fill="none" stroke="#f1c3b7" stroke-width="1.6" stroke-opacity="0.6" stroke-linecap="round"/>
<path d="M 535.6 1373.0 C 584.6 1373.0, 584.6 1319.0, 633.6 1319.0" fill="none" stroke="#f1c3b7" stroke-width="1.6" stroke-opacity="0.6" stroke-linecap="round"/>
<path d="M 535.6 1373.0 C 584.6 1373.0, 584.6 1373.0, 633.6 1373.0" fill="none" stroke="#f1c3b7" stroke-width="1.6" stroke-opacity="0.6" stroke-linecap="round"/>
<path d="M 535.6 1373.0 C 584.6 1373.0, 584.6 1427.0, 633.6 1427.0" fill="none" stroke="#f1c3b7" stroke-width="1.6" stroke-opacity="0.6" stroke-linecap="round"/>
<path d="M 535.6 1373.0 C 584.6 1373.0, 584.6 1481.0, 633.6 1481.0" fill="none" stroke="#f1c3b7" stroke-width="1.6" stroke-opacity="0.6" stroke-linecap="round"/>
<path d="M 321.6 1211.0 C 349.6 1211.0, 349.6 1616.0, 377.6 1616.0" fill="none" stroke="#457B9D" stroke-width="2.4" stroke-opacity="0.85" stroke-linecap="round"/>
<path d="M 560.8 1616.0 C 597.2 1616.0, 597.2 1535.0, 633.6 1535.0" fill="none" stroke="#abc4d3" stroke-width="1.6" stroke-opacity="0.6" stroke-linecap="round"/>
<path d="M 560.8 1616.0 C 597.2 1616.0, 597.2 1589.0, 633.6 1589.0" fill="none" stroke="#abc4d3" stroke-width="1.6" stroke-opacity="0.6" stroke-linecap="round"/>
<path d="M 560.8 1616.0 C 597.2 1616.0, 597.2 1643.0, 633.6 1643.0" fill="none" stroke="#abc4d3" stroke-width="1.6" stroke-opacity="0.6" stroke-linecap="round"/>
<path d="M 560.8 1616.0 C 597.2 1616.0, 597.2 1697.0, 633.6 1697.0" fill="none" stroke="#abc4d3" stroke-width="1.6" stroke-opacity="0.6" stroke-linecap="round"/>
<path d="M 321.6 1211.0 C 349.6 1211.0, 349.6 1832.0, 377.6 1832.0" fill="none" stroke="#118AB2" stroke-width="2.4" stroke-opacity="0.85" stroke-linecap="round"/>
<path d="M 544.0 1832.0 C 588.8 1832.0, 588.8 1751.0, 633.6 1751.0" fill="none" stroke="#94cadc" stroke-width="1.6" stroke-opacity="0.6" stroke-linecap="round"/>
<path d="M 544.0 1832.0 C 588.8 1832.0, 588.8 1805.0, 633.6 1805.0" fill="none" stroke="#94cadc" stroke-width="1.6" stroke-opacity="0.6" stroke-linecap="round"/>
<path d="M 544.0 1832.0 C 588.8 1832.0, 588.8 1859.0, 633.6 1859.0" fill="none" stroke="#94cadc" stroke-width="1.6" stroke-opacity="0.6" stroke-linecap="round"/>
<path d="M 544.0 1832.0 C 588.8 1832.0, 588.8 1913.0, 633.6 1913.0" fill="none" stroke="#94cadc" stroke-width="1.6" stroke-opacity="0.6" stroke-linecap="round"/>
<path d="M 321.6 1211.0 C 349.6 1211.0, 349.6 2048.0, 377.6 2048.0" fill="none" stroke="#C44536" stroke-width="2.4" stroke-opacity="0.85" stroke-linecap="round"/>
<path d="M 577.6 2048.0 C 605.6 2048.0, 605.6 1967.0, 633.6 1967.0" fill="none" stroke="#e4aba5" stroke-width="1.6" stroke-opacity="0.6" stroke-linecap="round"/>
<path d="M 577.6 2048.0 C 605.6 2048.0, 605.6 2021.0, 633.6 2021.0" fill="none" stroke="#e4aba5" stroke-width="1.6" stroke-opacity="0.6" stroke-linecap="round"/>
<path d="M 577.6 2048.0 C 605.6 2048.0, 605.6 2075.0, 633.6 2075.0" fill="none" stroke="#e4aba5" stroke-width="1.6" stroke-opacity="0.6" stroke-linecap="round"/>
<path d="M 577.6 2048.0 C 605.6 2048.0, 605.6 2129.0, 633.6 2129.0" fill="none" stroke="#e4aba5" stroke-width="1.6" stroke-opacity="0.6" stroke-linecap="round"/>
<path d="M 321.6 1211.0 C 349.6 1211.0, 349.6 2264.0, 377.6 2264.0" fill="none" stroke="#3D5A80" stroke-width="2.4" stroke-opacity="0.85" stroke-linecap="round"/>
<path d="M 560.8 2264.0 C 597.2 2264.0, 597.2 2183.0, 633.6 2183.0" fill="none" stroke="#a8b5c6" stroke-width="1.6" stroke-opacity="0.6" stroke-linecap="round"/>
<path d="M 560.8 2264.0 C 597.2 2264.0, 597.2 2237.0, 633.6 2237.0" fill="none" stroke="#a8b5c6" stroke-width="1.6" stroke-opacity="0.6" stroke-linecap="round"/>
<path d="M 560.8 2264.0 C 597.2 2264.0, 597.2 2291.0, 633.6 2291.0" fill="none" stroke="#a8b5c6" stroke-width="1.6" stroke-opacity="0.6" stroke-linecap="round"/>
<path d="M 560.8 2264.0 C 597.2 2264.0, 597.2 2345.0, 633.6 2345.0" fill="none" stroke="#a8b5c6" stroke-width="1.6" stroke-opacity="0.6" stroke-linecap="round"/>
</g>
  <g><g><rect x="40.0" y="1195.0" width="281.6" height="32" rx="14" fill="#0B132B" stroke="#0B132B" stroke-width="1"/><text x="62.0" y="1217.3" font-family="Inter, system-ui, -apple-system, Segoe UI, Roboto, sans-serif" font-size="18" font-weight="800" fill="#FFFFFF">Agency Pipeline Engine</text></g>
<g><rect x="377.6" y="142.0" width="191.6" height="32" rx="9" fill="#D64045" stroke="#af3439" stroke-width="1"/><text x="393.6" y="162.9" font-family="Inter, system-ui, -apple-system, Segoe UI, Roboto, sans-serif" font-size="14" font-weight="700" fill="#FFFFFF">1 - Brief &amp; Planner</text></g>
<g><rect x="633.6" y="61.0" width="138.5" height="32" rx="9" fill="#f8ddde" stroke="#eda9ab" stroke-width="1"/><text x="646.6" y="81.4" font-family="Inter, system-ui, -apple-system, Segoe UI, Roboto, sans-serif" font-size="12.5" font-weight="500" fill="#601d1f">Free-text brief</text></g>
<g><rect x="633.6" y="115.0" width="221.0" height="32" rx="9" fill="#f8ddde" stroke="#eda9ab" stroke-width="1"/><text x="646.6" y="135.4" font-family="Inter, system-ui, -apple-system, Segoe UI, Roboto, sans-serif" font-size="12.5" font-weight="500" fill="#601d1f">Clarifying questions first</text></g>
<g><rect x="633.6" y="169.0" width="183.5" height="32" rx="9" fill="#f8ddde" stroke="#eda9ab" stroke-width="1"/><text x="646.6" y="189.4" font-family="Inter, system-ui, -apple-system, Segoe UI, Roboto, sans-serif" font-size="12.5" font-weight="500" fill="#601d1f">Emits task DAG (JSON)</text></g>
<g><rect x="633.6" y="223.0" width="213.5" height="32" rx="9" fill="#f8ddde" stroke="#eda9ab" stroke-width="1"/><text x="646.6" y="243.4" font-family="Inter, system-ui, -apple-system, Segoe UI, Roboto, sans-serif" font-size="12.5" font-weight="500" fill="#601d1f">Validator: acyclic + lint</text></g>
<g><rect x="377.6" y="378.0" width="149.6" height="46" rx="9" fill="#1D3557" stroke="#182b47" stroke-width="1"/><text x="393.6" y="397.0" font-family="Inter, system-ui, -apple-system, Segoe UI, Roboto, sans-serif" font-size="14" font-weight="700" fill="#FFFFFF">2 - Task Board</text><text x="393.6" y="415.0" font-family="Inter, system-ui, -apple-system, Segoe UI, Roboto, sans-serif" font-size="14" font-weight="700" fill="#FFFFFF">(Supabase)</text></g>
<g><rect x="633.6" y="277.0" width="86.0" height="32" rx="9" fill="#d6dbe1" stroke="#99a4b3" stroke-width="1"/><text x="646.6" y="297.4" font-family="Inter, system-ui, -apple-system, Segoe UI, Roboto, sans-serif" font-size="12.5" font-weight="500" fill="#0d1827">projects</text></g>
<g><rect x="633.6" y="331.0" width="168.5" height="32" rx="9" fill="#d6dbe1" stroke="#99a4b3" stroke-width="1"/><text x="646.6" y="351.4" font-family="Inter, system-ui, -apple-system, Segoe UI, Roboto, sans-serif" font-size="12.5" font-weight="500" fill="#0d1827">tasks (status enum)</text></g>
<g><rect x="633.6" y="385.0" width="213.5" height="32" rx="9" fill="#d6dbe1" stroke="#99a4b3" stroke-width="1"/><text x="646.6" y="405.4" font-family="Inter, system-ui, -apple-system, Segoe UI, Roboto, sans-serif" font-size="12.5" font-weight="500" fill="#0d1827">task_dependencies (edges)</text></g>
<g><rect x="633.6" y="439.0" width="221.0" height="32" rx="9" fill="#d6dbe1" stroke="#99a4b3" stroke-width="1"/><text x="646.6" y="459.4" font-family="Inter, system-ui, -apple-system, Segoe UI, Roboto, sans-serif" font-size="12.5" font-weight="500" fill="#0d1827">task_outputs (append-only)</text></g>
<g><rect x="633.6" y="493.0" width="198.5" height="32" rx="9" fill="#d6dbe1" stroke="#99a4b3" stroke-width="1"/><text x="646.6" y="513.4" font-family="Inter, system-ui, -apple-system, Segoe UI, Roboto, sans-serif" font-size="12.5" font-weight="500" fill="#0d1827">agent_runs / run_events</text></g>
<g><rect x="377.6" y="628.0" width="200.0" height="32" rx="9" fill="#E9B44C" stroke="#bf943e" stroke-width="1"/><text x="393.6" y="648.9" font-family="Inter, system-ui, -apple-system, Segoe UI, Roboto, sans-serif" font-size="14" font-weight="700" fill="#FFFFFF">3 - The Engine (SQL)</text></g>
<g><rect x="633.6" y="547.0" width="138.5" height="32" rx="9" fill="#fbf2df" stroke="#f5ddae" stroke-width="1"/><text x="646.6" y="567.4" font-family="Inter, system-ui, -apple-system, Segoe UI, Roboto, sans-serif" font-size="12.5" font-weight="500" fill="#695122">Unblock trigger</text></g>
<g><rect x="633.6" y="601.0" width="161.0" height="32" rx="9" fill="#fbf2df" stroke="#f5ddae" stroke-width="1"/><text x="646.6" y="621.4" font-family="Inter, system-ui, -apple-system, Segoe UI, Roboto, sans-serif" font-size="12.5" font-weight="500" fill="#695122">v_ready_tasks view</text></g>
<g><rect x="633.6" y="655.0" width="191.0" height="32" rx="9" fill="#fbf2df" stroke="#f5ddae" stroke-width="1"/><text x="646.6" y="675.4" font-family="Inter, system-ui, -apple-system, Segoe UI, Roboto, sans-serif" font-size="12.5" font-weight="500" fill="#695122">Brand-kit sync trigger</text></g>
<g><rect x="633.6" y="709.0" width="146.0" height="32" rx="9" fill="#fbf2df" stroke="#f5ddae" stroke-width="1"/><text x="646.6" y="729.4" font-family="Inter, system-ui, -apple-system, Segoe UI, Roboto, sans-serif" font-size="12.5" font-weight="500" fill="#695122">v_project_health</text></g>
<g><rect x="377.6" y="837.0" width="174.8" height="46" rx="9" fill="#2D6A4F" stroke="#255741" stroke-width="1"/><text x="393.6" y="856.0" font-family="Inter, system-ui, -apple-system, Segoe UI, Roboto, sans-serif" font-size="14" font-weight="700" fill="#FFFFFF">4 - DAG &amp; Unblock</text><text x="393.6" y="874.0" font-family="Inter, system-ui, -apple-system, Segoe UI, Roboto, sans-serif" font-size="14" font-weight="700" fill="#FFFFFF">rule</text></g>
<g><rect x="633.6" y="763.0" width="123.5" height="32" rx="9" fill="#d9e4df" stroke="#a1bcb0" stroke-width="1"/><text x="646.6" y="783.4" font-family="Inter, system-ui, -apple-system, Segoe UI, Roboto, sans-serif" font-size="12.5" font-weight="500" fill="#143024">Tasks = nodes</text></g>
<g><rect x="633.6" y="817.0" width="176.0" height="32" rx="9" fill="#d9e4df" stroke="#a1bcb0" stroke-width="1"/><text x="646.6" y="837.4" font-family="Inter, system-ui, -apple-system, Segoe UI, Roboto, sans-serif" font-size="12.5" font-weight="500" fill="#143024">Dependencies = edges</text></g>
<g><rect x="633.6" y="871.0" width="213.5" height="32" rx="9" fill="#d9e4df" stroke="#a1bcb0" stroke-width="1"/><text x="646.6" y="891.4" font-family="Inter, system-ui, -apple-system, Segoe UI, Roboto, sans-serif" font-size="12.5" font-weight="500" fill="#143024">Ready = all upstream done</text></g>
<g><rect x="633.6" y="925.0" width="176.0" height="32" rx="9" fill="#d9e4df" stroke="#a1bcb0" stroke-width="1"/><text x="646.6" y="945.4" font-family="Inter, system-ui, -apple-system, Segoe UI, Roboto, sans-serif" font-size="12.5" font-weight="500" fill="#143024">Stages = topo layers</text></g>
<g><rect x="377.6" y="1087.0" width="183.2" height="32" rx="9" fill="#7B2D8E" stroke="#652574" stroke-width="1"/><text x="393.6" y="1107.9" font-family="Inter, system-ui, -apple-system, Segoe UI, Roboto, sans-serif" font-size="14" font-weight="700" fill="#FFFFFF">5 - Scheduler loop</text></g>
<g><rect x="633.6" y="979.0" width="176.0" height="32" rx="9" fill="#e7d9eb" stroke="#c4a1cc" stroke-width="1"/><text x="646.6" y="999.4" font-family="Inter, system-ui, -apple-system, Segoe UI, Roboto, sans-serif" font-size="12.5" font-weight="500" fill="#371440">Reclaim stale leases</text></g>
<g><rect x="633.6" y="1026.0" width="191.0" height="46" rx="9" fill="#e7d9eb" stroke="#c4a1cc" stroke-width="1"/><text x="646.6" y="1045.0" font-family="Inter, system-ui, -apple-system, Segoe UI, Roboto, sans-serif" font-size="12.5" font-weight="500" fill="#371440">Claim: FOR UPDATE SKIP</text><text x="646.6" y="1061.5" font-family="Inter, system-ui, -apple-system, Segoe UI, Roboto, sans-serif" font-size="12.5" font-weight="500" fill="#371440">LOCKED</text></g>
<g><rect x="633.6" y="1087.0" width="221.0" height="32" rx="9" fill="#e7d9eb" stroke="#c4a1cc" stroke-width="1"/><text x="646.6" y="1107.4" font-family="Inter, system-ui, -apple-system, Segoe UI, Roboto, sans-serif" font-size="12.5" font-weight="500" fill="#371440">Concurrency caps (3 tiers)</text></g>
<g><rect x="633.6" y="1141.0" width="176.0" height="32" rx="9" fill="#e7d9eb" stroke="#c4a1cc" stroke-width="1"/><text x="646.6" y="1161.4" font-family="Inter, system-ui, -apple-system, Segoe UI, Roboto, sans-serif" font-size="12.5" font-weight="500" fill="#371440">Dispatch dept agents</text></g>
<g><rect x="633.6" y="1195.0" width="183.5" height="32" rx="9" fill="#e7d9eb" stroke="#c4a1cc" stroke-width="1"/><text x="646.6" y="1215.4" font-family="Inter, system-ui, -apple-system, Segoe UI, Roboto, sans-serif" font-size="12.5" font-weight="500" fill="#371440">Persist &amp; re-evaluate</text></g>
<g><rect x="377.6" y="1350.0" width="158.0" height="46" rx="9" fill="#E07A5F" stroke="#b8644e" stroke-width="1"/><text x="393.6" y="1369.0" font-family="Inter, system-ui, -apple-system, Segoe UI, Roboto, sans-serif" font-size="14" font-weight="700" fill="#FFFFFF">6 - Departments</text><text x="393.6" y="1387.0" font-family="Inter, system-ui, -apple-system, Segoe UI, Roboto, sans-serif" font-size="14" font-weight="700" fill="#FFFFFF">(agents)</text></g>
<g><rect x="633.6" y="1249.0" width="168.5" height="32" rx="9" fill="#f9e7e2" stroke="#f1c3b7" stroke-width="1"/><text x="646.6" y="1269.4" font-family="Inter, system-ui, -apple-system, Segoe UI, Roboto, sans-serif" font-size="12.5" font-weight="500" fill="#65372b">Research · Branding</text></g>
<g><rect x="633.6" y="1303.0" width="176.0" height="32" rx="9" fill="#f9e7e2" stroke="#f1c3b7" stroke-width="1"/><text x="646.6" y="1323.4" font-family="Inter, system-ui, -apple-system, Segoe UI, Roboto, sans-serif" font-size="12.5" font-weight="500" fill="#65372b">CMS/stack · Database</text></g>
<g><rect x="633.6" y="1357.0" width="138.5" height="32" rx="9" fill="#f9e7e2" stroke="#f1c3b7" stroke-width="1"/><text x="646.6" y="1377.4" font-family="Inter, system-ui, -apple-system, Segoe UI, Roboto, sans-serif" font-size="12.5" font-weight="500" fill="#65372b">Auth · Frontend</text></g>
<g><rect x="633.6" y="1411.0" width="138.5" height="32" rx="9" fill="#f9e7e2" stroke="#f1c3b7" stroke-width="1"/><text x="646.6" y="1431.4" font-family="Inter, system-ui, -apple-system, Segoe UI, Roboto, sans-serif" font-size="12.5" font-weight="500" fill="#65372b">Media · Content</text></g>
<g><rect x="633.6" y="1465.0" width="146.0" height="32" rx="9" fill="#f9e7e2" stroke="#f1c3b7" stroke-width="1"/><text x="646.6" y="1485.4" font-family="Inter, system-ui, -apple-system, Segoe UI, Roboto, sans-serif" font-size="12.5" font-weight="500" fill="#65372b">Integration · QA</text></g>
<g><rect x="377.6" y="1600.0" width="183.2" height="32" rx="9" fill="#457B9D" stroke="#396581" stroke-width="1"/><text x="393.6" y="1620.9" font-family="Inter, system-ui, -apple-system, Segoe UI, Roboto, sans-serif" font-size="14" font-weight="700" fill="#FFFFFF">7 - Agent contract</text></g>
<g><rect x="633.6" y="1512.0" width="176.0" height="46" rx="9" fill="#dee7ed" stroke="#abc4d3" stroke-width="1"/><text x="646.6" y="1531.0" font-family="Inter, system-ui, -apple-system, Segoe UI, Roboto, sans-serif" font-size="12.5" font-weight="500" fill="#1f3747">In: brief + upstream</text><text x="646.6" y="1547.5" font-family="Inter, system-ui, -apple-system, Segoe UI, Roboto, sans-serif" font-size="12.5" font-weight="500" fill="#1f3747">outputs</text></g>
<g><rect x="633.6" y="1573.0" width="176.0" height="32" rx="9" fill="#dee7ed" stroke="#abc4d3" stroke-width="1"/><text x="646.6" y="1593.4" font-family="Inter, system-ui, -apple-system, Segoe UI, Roboto, sans-serif" font-size="12.5" font-weight="500" fill="#1f3747">Out: structured JSON</text></g>
<g><rect x="633.6" y="1627.0" width="191.0" height="32" rx="9" fill="#dee7ed" stroke="#abc4d3" stroke-width="1"/><text x="646.6" y="1647.4" font-family="Inter, system-ui, -apple-system, Segoe UI, Roboto, sans-serif" font-size="12.5" font-weight="500" fill="#1f3747">Writes result to board</text></g>
<g><rect x="633.6" y="1681.0" width="161.0" height="32" rx="9" fill="#dee7ed" stroke="#abc4d3" stroke-width="1"/><text x="646.6" y="1701.4" font-family="Inter, system-ui, -apple-system, Segoe UI, Roboto, sans-serif" font-size="12.5" font-weight="500" fill="#1f3747">Idempotent · retry</text></g>
<g><rect x="377.6" y="1816.0" width="166.4" height="32" rx="9" fill="#118AB2" stroke="#0e7192" stroke-width="1"/><text x="393.6" y="1836.9" font-family="Inter, system-ui, -apple-system, Segoe UI, Roboto, sans-serif" font-size="14" font-weight="700" fill="#FFFFFF">8 - Context flow</text></g>
<g><rect x="633.6" y="1735.0" width="168.5" height="32" rx="9" fill="#d4eaf1" stroke="#94cadc" stroke-width="1"/><text x="646.6" y="1755.4" font-family="Inter, system-ui, -apple-system, Segoe UI, Roboto, sans-serif" font-size="12.5" font-weight="500" fill="#083e50">Branding runs first</text></g>
<g><rect x="633.6" y="1789.0" width="146.0" height="32" rx="9" fill="#d4eaf1" stroke="#94cadc" stroke-width="1"/><text x="646.6" y="1809.4" font-family="Inter, system-ui, -apple-system, Segoe UI, Roboto, sans-serif" font-size="12.5" font-weight="500" fill="#083e50">Brand kit pinned</text></g>
<g><rect x="633.6" y="1843.0" width="198.5" height="32" rx="9" fill="#d4eaf1" stroke="#94cadc" stroke-width="1"/><text x="646.6" y="1863.4" font-family="Inter, system-ui, -apple-system, Segoe UI, Roboto, sans-serif" font-size="12.5" font-weight="500" fill="#083e50">Palette · type · layout</text></g>
<g><rect x="633.6" y="1897.0" width="213.5" height="32" rx="9" fill="#d4eaf1" stroke="#94cadc" stroke-width="1"/><text x="646.6" y="1917.4" font-family="Inter, system-ui, -apple-system, Segoe UI, Roboto, sans-serif" font-size="12.5" font-weight="500" fill="#083e50">Injected into build tasks</text></g>
<g><rect x="377.6" y="2032.0" width="200.0" height="32" rx="9" fill="#C44536" stroke="#a1392c" stroke-width="1"/><text x="393.6" y="2052.9" font-family="Inter, system-ui, -apple-system, Segoe UI, Roboto, sans-serif" font-size="14" font-weight="700" fill="#FFFFFF">9 - Failure &amp; resume</text></g>
<g><rect x="633.6" y="1951.0" width="146.0" height="32" rx="9" fill="#f4dedb" stroke="#e4aba5" stroke-width="1"/><text x="646.6" y="1971.4" font-family="Inter, system-ui, -apple-system, Segoe UI, Roboto, sans-serif" font-size="12.5" font-weight="500" fill="#581f18">Leases + reclaim</text></g>
<g><rect x="633.6" y="2005.0" width="161.0" height="32" rx="9" fill="#f4dedb" stroke="#e4aba5" stroke-width="1"/><text x="646.6" y="2025.4" font-family="Inter, system-ui, -apple-system, Segoe UI, Roboto, sans-serif" font-size="12.5" font-weight="500" fill="#581f18">needs_review gates</text></g>
<g><rect x="633.6" y="2059.0" width="131.0" height="32" rx="9" fill="#f4dedb" stroke="#e4aba5" stroke-width="1"/><text x="646.6" y="2079.4" font-family="Inter, system-ui, -apple-system, Segoe UI, Roboto, sans-serif" font-size="12.5" font-weight="500" fill="#581f18">Retry attempts</text></g>
<g><rect x="633.6" y="2113.0" width="138.5" height="32" rx="9" fill="#f4dedb" stroke="#e4aba5" stroke-width="1"/><text x="646.6" y="2133.4" font-family="Inter, system-ui, -apple-system, Segoe UI, Roboto, sans-serif" font-size="12.5" font-weight="500" fill="#581f18">Restart from DB</text></g>
<g><rect x="377.6" y="2248.0" width="183.2" height="32" rx="9" fill="#3D5A80" stroke="#324a69" stroke-width="1"/><text x="393.6" y="2268.9" font-family="Inter, system-ui, -apple-system, Segoe UI, Roboto, sans-serif" font-size="14" font-weight="700" fill="#FFFFFF">10 - Observability</text></g>
<g><rect x="633.6" y="2167.0" width="138.5" height="32" rx="9" fill="#dce1e8" stroke="#a8b5c6" stroke-width="1"/><text x="646.6" y="2187.4" font-family="Inter, system-ui, -apple-system, Segoe UI, Roboto, sans-serif" font-size="12.5" font-weight="500" fill="#1b283a">Query the board</text></g>
<g><rect x="633.6" y="2221.0" width="168.5" height="32" rx="9" fill="#dce1e8" stroke="#a8b5c6" stroke-width="1"/><text x="646.6" y="2241.4" font-family="Inter, system-ui, -apple-system, Segoe UI, Roboto, sans-serif" font-size="12.5" font-weight="500" fill="#1b283a">v_board status view</text></g>
<g><rect x="633.6" y="2275.0" width="131.0" height="32" rx="9" fill="#dce1e8" stroke="#a8b5c6" stroke-width="1"/><text x="646.6" y="2295.4" font-family="Inter, system-ui, -apple-system, Segoe UI, Roboto, sans-serif" font-size="12.5" font-weight="500" fill="#1b283a">Project health</text></g>
<g><rect x="633.6" y="2329.0" width="123.5" height="32" rx="9" fill="#dce1e8" stroke="#a8b5c6" stroke-width="1"/><text x="646.6" y="2349.4" font-family="Inter, system-ui, -apple-system, Segoe UI, Roboto, sans-serif" font-size="12.5" font-weight="500" fill="#1b283a">Budget ledger</text></g>
</g>
</svg>