<?xml version="1.0" encoding="UTF-8"?>
<svg xmlns="http://www.w3.org/2000/svg" width="797" height="1038" viewBox="0 0 797 1038" font-family="Inter, system-ui, -apple-system, Segoe UI, Roboto, sans-serif">
  <rect width="100%" height="100%" fill="#FBFBFD"/>
  <text x="40" y="30" font-family="Inter, system-ui, -apple-system, Segoe UI, Roboto, sans-serif" font-size="22" font-weight="800" fill="#0B132B">Agency Pipeline — Concept</text>
  <text x="40" y="44" font-family="Inter, system-ui, -apple-system, Segoe UI, Roboto, sans-serif" font-size="12.5" fill="#6B7280">A brief comes in; a planner explodes it into tasks with dependencies; they fire stage-by-stage (parallel where independent, sequential where one feeds the next) — like an agency handing work between departments.</text>
  <g><path d="M 246.0 495.5 C 274.0 495.5, 274.0 104.0, 302.0 104.0" fill="none" stroke="#D64045" stroke-width="2.4" stroke-opacity="0.85" stroke-linecap="round"/>
<path d="M 434.8 104.0 C 496.4 104.0, 496.4 77.0, 558.0 77.0" fill="none" stroke="#eda9ab" stroke-width="1.6" stroke-opacity="0.6" stroke-linecap="round"/>
<path d="M 434.8 104.0 C 496.4 104.0, 496.4 131.0, 558.0 131.0" fill="none" stroke="#eda9ab" stroke-width="1.6" stroke-opacity="0.6" stroke-linecap="round"/>
<path d="M 246.0 495.5 C 274.0 495.5, 274.0 239.0, 302.0 239.0" fill="none" stroke="#1D3557" stroke-width="2.4" stroke-opacity="0.85" stroke-linecap="round"/>
<path d="M 502.0 239.0 C 530.0 239.0, 530.0 185.0, 558.0 185.0" fill="none" stroke="#99a4b3" stroke-width="1.6" stroke-opacity="0.6" stroke-linecap="round"/>
<path d="M 502.0 239.0 C 530.0 239.0, 530.0 239.0, 558.0 239.0" fill="none" stroke="#99a4b3" stroke-width="1.6" stroke-opacity="0.6" stroke-linecap="round"/>
<path d="M 502.0 239.0 C 530.0 239.0, 530.0 293.0, 558.0 293.0" fill="none" stroke="#99a4b3" stroke-width="1.6" stroke-opacity="0.6" stroke-linecap="round"/>
<path d="M 246.0 495.5 C 274.0 495.5, 274.0 401.0, 302.0 401.0" fill="none" stroke="#E9B44C" stroke-width="2.4" stroke-opacity="0.85" stroke-linecap="round"/>
<path d="M 434.8 401.0 C 496.4 401.0, 496.4 347.0, 558.0 347.0" fill="none" stroke="#f5ddae" stroke-width="1.6" stroke-opacity="0.6" stroke-linecap="round"/>
<path d="M 434.8 401.0 C 496.4 401.0, 496.4 401.0, 558.0 401.0" fill="none" stroke="#f5ddae" stroke-width="1.6" stroke-opacity="0.6" stroke-linecap="round"/>
<path d="M 434.8 401.0 C 496.4 401.0, 496.4 455.0, 558.0 455.0" fill="none" stroke="#f5ddae" stroke-width="1.6" stroke-opacity="0.6" stroke-linecap="round"/>
<path d="M 246.0 495.5 C 274.0 495.5, 274.0 563.0, 302.0 563.0" fill="none" stroke="#2D6A4F" stroke-width="2.4" stroke-opacity="0.85" stroke-linecap="round"/>
<path d="M 485.2 563.0 C 521.6 563.0, 521.6 509.0, 558.0 509.0" fill="none" stroke="#a1bcb0" stroke-width="1.6" stroke-opacity="0.6" stroke-linecap="round"/>
<path d="M 485.2 563.0 C 521.6 563.0, 521.6 563.0, 558.0 563.0" fill="none" stroke="#a1bcb0" stroke-width="1.6" stroke-opacity="0.6" stroke-linecap="round"/>
<path d="M 485.2 563.0 C 521.6 563.0, 521.6 617.0, 558.0 617.0" fill="none" stroke="#a1bcb0" stroke-width="1.6" stroke-opacity="0.6" stroke-linecap="round"/>
<path d="M 246.0 495.5 C 274.0 495.5, 274.0 725.0, 302.0 725.0" fill="none" stroke="#7B2D8E" stroke-width="2.4" stroke-opacity="0.85" stroke-linecap="round"/>
<path d="M 451.6 725.0 C 504.8 725.0, 504.8 671.0, 558.0 671.0" fill="none" stroke="#c4a1cc" stroke-width="1.6" stroke-opacity="0.6" stroke-linecap="round"/>
<path d="M 451.6 725.0 C 504.8 725.0, 504.8 725.0, 558.0 725.0" fill="none" stroke="#c4a1cc" stroke-width="1.6" stroke-opacity="0.6" stroke-linecap="round"/>
<path d="M 451.6 725.0 C 504.8 725.0, 504.8 779.0, 558.0 779.0" fill="none" stroke="#c4a1cc" stroke-width="1.6" stroke-opacity="0.6" stroke-linecap="round"/>
<path d="M 246.0 495.5 C 274.0 495.5, 274.0 887.0, 302.0 887.0" fill="none" stroke="#E07A5F" stroke-width="2.4" stroke-opacity="0.85" stroke-linecap="round"/>
<path d="M 443.2 887.0 C 500.6 887.0, 500.6 833.0, 558.0 833.0" fill="none" stroke="#f1c3b7" stroke-width="1.6" stroke-opacity="0.6" stroke-linecap="round"/>
<path d="M 443.2 887.0 C 500.6 887.0, 500.6 887.0, 558.0 887.0" fill="none" stroke="#f1c3b7" stroke-width="1.6" stroke-opacity="0.6" stroke-linecap="round"/>
<path d="M 443.2 887.0 C 500.6 887.0, 500.6 941.0, 558.0 941.0" fill="none" stroke="#f1c3b7" stroke-width="1.6" stroke-opacity="0.6" stroke-linecap="round"/>
</g>
  <g><g><rect x="40.0" y="479.5" width="206.0" height="32" rx="14" fill="#0B132B" stroke="#0B132B" stroke-width="1"/><text x="62.0" y="501.8" font-family="Inter, system-ui, -apple-system, Segoe UI, Roboto, sans-serif" font-size="18" font-weight="800" fill="#FFFFFF">Agency Pipeline</text></g>
<g><rect x="302.0" y="88.0" width="132.8" height="32" rx="9" fill="#D64045" stroke="#af3439" stroke-width="1"/><text x="318.0" y="108.9" font-family="Inter, system-ui, -apple-system, Segoe UI, Roboto, sans-serif" font-size="14" font-weight="700" fill="#FFFFFF">1 - Brief in</text></g>
<g><rect x="558.0" y="61.0" width="183.5" height="32" rx="9" fill="#f8ddde" stroke="#eda9ab" stroke-width="1"/><text x="571.0" y="81.4" font-family="Inter, system-ui, -apple-system, Segoe UI, Roboto, sans-serif" font-size="12.5" font-weight="500" fill="#601d1f">One free-text request</text></g>
<g><rect x="558.0" y="115.0" width="131.0" height="32" rx="9" fill="#f8ddde" stroke="#eda9ab" stroke-width="1"/><text x="571.0" y="135.4" font-family="Inter, system-ui, -apple-system, Segoe UI, Roboto, sans-serif" font-size="12.5" font-weight="500" fill="#601d1f">The only input</text></g>
<g><rect x="302.0" y="216.0" width="200.0" height="46" rx="9" fill="#1D3557" stroke="#182b47" stroke-width="1"/><text x="318.0" y="235.0" font-family="Inter, system-ui, -apple-system, Segoe UI, Roboto, sans-serif" font-size="14" font-weight="700" fill="#FFFFFF">2 - Planner explodes</text><text x="318.0" y="253.0" font-family="Inter, system-ui, -apple-system, Segoe UI, Roboto, sans-serif" font-size="14" font-weight="700" fill="#FFFFFF">it</text></g>
<g><rect x="558.0" y="169.0" width="191.0" height="32" rx="9" fill="#d6dbe1" stroke="#99a4b3" stroke-width="1"/><text x="571.0" y="189.4" font-family="Inter, system-ui, -apple-system, Segoe UI, Roboto, sans-serif" font-size="12.5" font-weight="500" fill="#0d1827">Brief -&gt; list of tasks</text></g>
<g><rect x="558.0" y="223.0" width="153.5" height="32" rx="9" fill="#d6dbe1" stroke="#99a4b3" stroke-width="1"/><text x="571.0" y="243.4" font-family="Inter, system-ui, -apple-system, Segoe UI, Roboto, sans-serif" font-size="12.5" font-weight="500" fill="#0d1827">Sets dependencies</text></g>
<g><rect x="558.0" y="277.0" width="153.5" height="32" rx="9" fill="#d6dbe1" stroke="#99a4b3" stroke-width="1"/><text x="571.0" y="297.4" font-family="Inter, system-ui, -apple-system, Segoe UI, Roboto, sans-serif" font-size="12.5" font-weight="500" fill="#0d1827">Orders the stages</text></g>
<g><rect x="302.0" y="378.0" width="132.8" height="46" rx="9" fill="#E9B44C" stroke="#bf943e" stroke-width="1"/><text x="318.0" y="397.0" font-family="Inter, system-ui, -apple-system, Segoe UI, Roboto, sans-serif" font-size="14" font-weight="700" fill="#FFFFFF">3 - Tasks +</text><text x="318.0" y="415.0" font-family="Inter, system-ui, -apple-system, Segoe UI, Roboto, sans-serif" font-size="14" font-weight="700" fill="#FFFFFF">dependencies</text></g>
<g><rect x="558.0" y="331.0" width="198.5" height="32" rx="9" fill="#fbf2df" stroke="#f5ddae" stroke-width="1"/><text x="571.0" y="351.4" font-family="Inter, system-ui, -apple-system, Segoe UI, Roboto, sans-serif" font-size="12.5" font-weight="500" fill="#695122">Each task = one AI call</text></g>
<g><rect x="558.0" y="385.0" width="191.0" height="32" rx="9" fill="#fbf2df" stroke="#f5ddae" stroke-width="1"/><text x="571.0" y="405.4" font-family="Inter, system-ui, -apple-system, Segoe UI, Roboto, sans-serif" font-size="12.5" font-weight="500" fill="#695122">Edges = who feeds whom</text></g>
<g><rect x="558.0" y="439.0" width="123.5" height="32" rx="9" fill="#fbf2df" stroke="#f5ddae" stroke-width="1"/><text x="571.0" y="459.4" font-family="Inter, system-ui, -apple-system, Segoe UI, Roboto, sans-serif" font-size="12.5" font-weight="500" fill="#695122">Forms a graph</text></g>
<g><rect x="302.0" y="547.0" width="183.2" height="32" rx="9" fill="#2D6A4F" stroke="#255741" stroke-width="1"/><text x="318.0" y="567.9" font-family="Inter, system-ui, -apple-system, Segoe UI, Roboto, sans-serif" font-size="14" font-weight="700" fill="#FFFFFF">4 - Stage by stage</text></g>
<g><rect x="558.0" y="493.0" width="198.5" height="32" rx="9" fill="#d9e4df" stroke="#a1bcb0" stroke-width="1"/><text x="571.0" y="513.4" font-family="Inter, system-ui, -apple-system, Segoe UI, Roboto, sans-serif" font-size="12.5" font-weight="500" fill="#143024">Parallel if independent</text></g>
<g><rect x="558.0" y="540.0" width="198.5" height="46" rx="9" fill="#d9e4df" stroke="#a1bcb0" stroke-width="1"/><text x="571.0" y="559.0" font-family="Inter, system-ui, -apple-system, Segoe UI, Roboto, sans-serif" font-size="12.5" font-weight="500" fill="#143024">Sequential if one feeds</text><text x="571.0" y="575.5" font-family="Inter, system-ui, -apple-system, Segoe UI, Roboto, sans-serif" font-size="12.5" font-weight="500" fill="#143024">next</text></g>
<g><rect x="558.0" y="601.0" width="198.5" height="32" rx="9" fill="#d9e4df" stroke="#a1bcb0" stroke-width="1"/><text x="571.0" y="621.4" font-family="Inter, system-ui, -apple-system, Segoe UI, Roboto, sans-serif" font-size="12.5" font-weight="500" fill="#143024">Done task unblocks next</text></g>
<g><rect x="302.0" y="702.0" width="149.6" height="46" rx="9" fill="#7B2D8E" stroke="#652574" stroke-width="1"/><text x="318.0" y="721.0" font-family="Inter, system-ui, -apple-system, Segoe UI, Roboto, sans-serif" font-size="14" font-weight="700" fill="#FFFFFF">5 - Department</text><text x="318.0" y="739.0" font-family="Inter, system-ui, -apple-system, Segoe UI, Roboto, sans-serif" font-size="14" font-weight="700" fill="#FFFFFF">handoff</text></g>
<g><rect x="558.0" y="655.0" width="176.0" height="32" rx="9" fill="#e7d9eb" stroke="#c4a1cc" stroke-width="1"/><text x="571.0" y="675.4" font-family="Inter, system-ui, -apple-system, Segoe UI, Roboto, sans-serif" font-size="12.5" font-weight="500" fill="#371440">research -&gt; branding</text></g>
<g><rect x="558.0" y="709.0" width="183.5" height="32" rx="9" fill="#e7d9eb" stroke="#c4a1cc" stroke-width="1"/><text x="571.0" y="729.4" font-family="Inter, system-ui, -apple-system, Segoe UI, Roboto, sans-serif" font-size="12.5" font-weight="500" fill="#371440">-&gt; build -&gt; integrate</text></g>
<g><rect x="558.0" y="763.0" width="183.5" height="32" rx="9" fill="#e7d9eb" stroke="#c4a1cc" stroke-width="1"/><text x="571.0" y="783.4" font-family="Inter, system-ui, -apple-system, Segoe UI, Roboto, sans-serif" font-size="12.5" font-weight="500" fill="#371440">Output feeds the next</text></g>
<g><rect x="302.0" y="871.0" width="141.2" height="32" rx="9" fill="#E07A5F" stroke="#b8644e" stroke-width="1"/><text x="318.0" y="891.9" font-family="Inter, system-ui, -apple-system, Segoe UI, Roboto, sans-serif" font-size="14" font-weight="700" fill="#FFFFFF">6 - The board</text></g>
<g><rect x="558.0" y="817.0" width="198.5" height="32" rx="9" fill="#f9e7e2" stroke="#f1c3b7" stroke-width="1"/><text x="571.0" y="837.4" font-family="Inter, system-ui, -apple-system, Segoe UI, Roboto, sans-serif" font-size="12.5" font-weight="500" fill="#65372b">Tasks live in one store</text></g>
<g><rect x="558.0" y="871.0" width="131.0" height="32" rx="9" fill="#f9e7e2" stroke="#f1c3b7" stroke-width="1"/><text x="571.0" y="891.4" font-family="Inter, system-ui, -apple-system, Segoe UI, Roboto, sans-serif" font-size="12.5" font-weight="500" fill="#65372b">Status tracked</text></g>
<g><rect x="558.0" y="925.0" width="116.0" height="32" rx="9" fill="#f9e7e2" stroke="#f1c3b7" stroke-width="1"/><text x="571.0" y="945.4" font-family="Inter, system-ui, -apple-system, Segoe UI, Roboto, sans-serif" font-size="12.5" font-weight="500" fill="#65372b">Restart-safe</text></g>
</g>
</svg>