<?xml version="1.0" encoding="UTF-8"?>
<svg xmlns="http://www.w3.org/2000/svg" width="744" height="1038" viewBox="0 0 744 1038" font-family="Inter, system-ui, -apple-system, Segoe UI, Roboto, sans-serif">
  <rect width="100%" height="100%" fill="#FBFBFD"/>
  <text x="40" y="30" font-family="Inter, system-ui, -apple-system, Segoe UI, Roboto, sans-serif" font-size="22" font-weight="800" fill="#0B132B">Agency Pipeline — Technical</text>
  <text x="40" y="44" font-family="Inter, system-ui, -apple-system, Segoe UI, Roboto, sans-serif" font-size="12.5" fill="#6B7280">How the chain actually runs.</text>
  <g><path d="M 202.8 509.0 C 230.8 509.0, 230.8 104.0, 258.8 104.0" fill="none" stroke="#D64045" stroke-width="2.4" stroke-opacity="0.85" stroke-linecap="round"/>
<path d="M 425.2 104.0 C 461.6 104.0, 461.6 77.0, 498.0 77.0" fill="none" stroke="#eda9ab" stroke-width="1.6" stroke-opacity="0.6" stroke-linecap="round"/>
<path d="M 425.2 104.0 C 461.6 104.0, 461.6 131.0, 498.0 131.0" fill="none" stroke="#eda9ab" stroke-width="1.6" stroke-opacity="0.6" stroke-linecap="round"/>
<path d="M 202.8 509.0 C 230.8 509.0, 230.8 266.0, 258.8 266.0" fill="none" stroke="#1D3557" stroke-width="2.4" stroke-opacity="0.85" stroke-linecap="round"/>
<path d="M 425.2 266.0 C 461.6 266.0, 461.6 185.0, 498.0 185.0" fill="none" stroke="#99a4b3" stroke-width="1.6" stroke-opacity="0.6" stroke-linecap="round"/>
<path d="M 425.2 266.0 C 461.6 266.0, 461.6 239.0, 498.0 239.0" fill="none" stroke="#99a4b3" stroke-width="1.6" stroke-opacity="0.6" stroke-linecap="round"/>
<path d="M 425.2 266.0 C 461.6 266.0, 461.6 293.0, 498.0 293.0" fill="none" stroke="#99a4b3" stroke-width="1.6" stroke-opacity="0.6" stroke-linecap="round"/>
<path d="M 425.2 266.0 C 461.6 266.0, 461.6 347.0, 498.0 347.0" fill="none" stroke="#99a4b3" stroke-width="1.6" stroke-opacity="0.6" stroke-linecap="round"/>
<path d="M 202.8 509.0 C 230.8 509.0, 230.8 482.0, 258.8 482.0" fill="none" stroke="#E9B44C" stroke-width="2.4" stroke-opacity="0.85" stroke-linecap="round"/>
<path d="M 408.4 482.0 C 453.2 482.0, 453.2 401.0, 498.0 401.0" fill="none" stroke="#f5ddae" stroke-width="1.6" stroke-opacity="0.6" stroke-linecap="round"/>
<path d="M 408.4 482.0 C 453.2 482.0, 453.2 455.0, 498.0 455.0" fill="none" stroke="#f5ddae" stroke-width="1.6" stroke-opacity="0.6" stroke-linecap="round"/>
<path d="M 408.4 482.0 C 453.2 482.0, 453.2 509.0, 498.0 509.0" fill="none" stroke="#f5ddae" stroke-width="1.6" stroke-opacity="0.6" stroke-linecap="round"/>
<path d="M 408.4 482.0 C 453.2 482.0, 453.2 563.0, 498.0 563.0" fill="none" stroke="#f5ddae" stroke-width="1.6" stroke-opacity="0.6" stroke-linecap="round"/>
<path d="M 202.8 509.0 C 230.8 509.0, 230.8 671.0, 258.8 671.0" fill="none" stroke="#2D6A4F" stroke-width="2.4" stroke-opacity="0.85" stroke-linecap="round"/>
<path d="M 442.0 671.0 C 470.0 671.0, 470.0 617.0, 498.0 617.0" fill="none" stroke="#a1bcb0" stroke-width="1.6" stroke-opacity="0.6" stroke-linecap="round"/>
<path d="M 442.0 671.0 C 470.0 671.0, 470.0 671.0, 498.0 671.0" fill="none" stroke="#a1bcb0" stroke-width="1.6" stroke-opacity="0.6" stroke-linecap="round"/>
<path d="M 442.0 671.0 C 470.0 671.0, 470.0 725.0, 498.0 725.0" fill="none" stroke="#a1bcb0" stroke-width="1.6" stroke-opacity="0.6" stroke-linecap="round"/>
<path d="M 202.8 509.0 C 230.8 509.0, 230.8 806.0, 258.8 806.0" fill="none" stroke="#7B2D8E" stroke-width="2.4" stroke-opacity="0.85" stroke-linecap="round"/>
<path d="M 416.8 806.0 C 457.4 806.0, 457.4 779.0, 498.0 779.0" fill="none" stroke="#c4a1cc" stroke-width="1.6" stroke-opacity="0.6" stroke-linecap="round"/>
<path d="M 416.8 806.0 C 457.4 806.0, 457.4 833.0, 498.0 833.0" fill="none" stroke="#c4a1cc" stroke-width="1.6" stroke-opacity="0.6" stroke-linecap="round"/>
<path d="M 202.8 509.0 C 230.8 509.0, 230.8 914.0, 258.8 914.0" fill="none" stroke="#E07A5F" stroke-width="2.4" stroke-opacity="0.85" stroke-linecap="round"/>
<path d="M 341.2 914.0 C 419.6 914.0, 419.6 887.0, 498.0 887.0" fill="none" stroke="#f1c3b7" stroke-width="1.6" stroke-opacity="0.6" stroke-linecap="round"/>
<path d="M 341.2 914.0 C 419.6 914.0, 419.6 941.0, 498.0 941.0" fill="none" stroke="#f1c3b7" stroke-width="1.6" stroke-opacity="0.6" stroke-linecap="round"/>
</g>
  <g><g><rect x="40.0" y="493.0" width="162.8" height="32" rx="14" fill="#0B132B" stroke="#0B132B" stroke-width="1"/><text x="62.0" y="515.3" font-family="Inter, system-ui, -apple-system, Segoe UI, Roboto, sans-serif" font-size="18" font-weight="800" fill="#FFFFFF">How it runs</text></g>
<g><rect x="258.8" y="88.0" width="166.4" height="32" rx="9" fill="#D64045" stroke="#af3439" stroke-width="1"/><text x="274.8" y="108.9" font-family="Inter, system-ui, -apple-system, Segoe UI, Roboto, sans-serif" font-size="14" font-weight="700" fill="#FFFFFF">Planner (1 call)</text></g>
<g><rect x="498.0" y="61.0" width="183.5" height="32" rx="9" fill="#f8ddde" stroke="#eda9ab" stroke-width="1"/><text x="511.0" y="81.4" font-family="Inter, system-ui, -apple-system, Segoe UI, Roboto, sans-serif" font-size="12.5" font-weight="500" fill="#601d1f">Brief -&gt; tasks + deps</text></g>
<g><rect x="498.0" y="115.0" width="146.0" height="32" rx="9" fill="#f8ddde" stroke="#eda9ab" stroke-width="1"/><text x="511.0" y="135.4" font-family="Inter, system-ui, -apple-system, Segoe UI, Roboto, sans-serif" font-size="12.5" font-weight="500" fill="#601d1f">Emits JSON graph</text></g>
<g><rect x="258.8" y="250.0" width="166.4" height="32" rx="9" fill="#1D3557" stroke="#182b47" stroke-width="1"/><text x="274.8" y="270.9" font-family="Inter, system-ui, -apple-system, Segoe UI, Roboto, sans-serif" font-size="14" font-weight="700" fill="#FFFFFF">Board (database)</text></g>
<g><rect x="498.0" y="169.0" width="70.0" height="32" rx="9" fill="#d6dbe1" stroke="#99a4b3" stroke-width="1"/><text x="511.0" y="189.4" font-family="Inter, system-ui, -apple-system, Segoe UI, Roboto, sans-serif" font-size="12.5" font-weight="500" fill="#0d1827">tasks</text></g>
<g><rect x="498.0" y="223.0" width="176.0" height="32" rx="9" fill="#d6dbe1" stroke="#99a4b3" stroke-width="1"/><text x="511.0" y="243.4" font-family="Inter, system-ui, -apple-system, Segoe UI, Roboto, sans-serif" font-size="12.5" font-weight="500" fill="#0d1827">dependencies (edges)</text></g>
<g><rect x="498.0" y="277.0" width="78.5" height="32" rx="9" fill="#d6dbe1" stroke="#99a4b3" stroke-width="1"/><text x="511.0" y="297.4" font-family="Inter, system-ui, -apple-system, Segoe UI, Roboto, sans-serif" font-size="12.5" font-weight="500" fill="#0d1827">outputs</text></g>
<g><rect x="498.0" y="331.0" width="71.0" height="32" rx="9" fill="#d6dbe1" stroke="#99a4b3" stroke-width="1"/><text x="511.0" y="351.4" font-family="Inter, system-ui, -apple-system, Segoe UI, Roboto, sans-serif" font-size="12.5" font-weight="500" fill="#0d1827">status</text></g>
<g><rect x="258.8" y="466.0" width="149.6" height="32" rx="9" fill="#E9B44C" stroke="#bf943e" stroke-width="1"/><text x="274.8" y="486.9" font-family="Inter, system-ui, -apple-system, Segoe UI, Roboto, sans-serif" font-size="14" font-weight="700" fill="#FFFFFF">Scheduler loop</text></g>
<g><rect x="498.0" y="385.0" width="146.0" height="32" rx="9" fill="#fbf2df" stroke="#f5ddae" stroke-width="1"/><text x="511.0" y="405.4" font-family="Inter, system-ui, -apple-system, Segoe UI, Roboto, sans-serif" font-size="12.5" font-weight="500" fill="#695122">Find ready tasks</text></g>
<g><rect x="498.0" y="439.0" width="86.0" height="32" rx="9" fill="#fbf2df" stroke="#f5ddae" stroke-width="1"/><text x="511.0" y="459.4" font-family="Inter, system-ui, -apple-system, Segoe UI, Roboto, sans-serif" font-size="12.5" font-weight="500" fill="#695122">Run them</text></g>
<g><rect x="498.0" y="493.0" width="116.0" height="32" rx="9" fill="#fbf2df" stroke="#f5ddae" stroke-width="1"/><text x="511.0" y="513.4" font-family="Inter, system-ui, -apple-system, Segoe UI, Roboto, sans-serif" font-size="12.5" font-weight="500" fill="#695122">Store output</text></g>
<g><rect x="498.0" y="547.0" width="176.0" height="32" rx="9" fill="#fbf2df" stroke="#f5ddae" stroke-width="1"/><text x="511.0" y="567.4" font-family="Inter, system-ui, -apple-system, Segoe UI, Roboto, sans-serif" font-size="12.5" font-weight="500" fill="#695122">Unblock next, repeat</text></g>
<g><rect x="258.8" y="655.0" width="183.2" height="32" rx="9" fill="#2D6A4F" stroke="#255741" stroke-width="1"/><text x="274.8" y="675.9" font-family="Inter, system-ui, -apple-system, Segoe UI, Roboto, sans-serif" font-size="14" font-weight="700" fill="#FFFFFF">Agent = 1 API call</text></g>
<g><rect x="498.0" y="601.0" width="206.0" height="32" rx="9" fill="#d9e4df" stroke="#a1bcb0" stroke-width="1"/><text x="511.0" y="621.4" font-family="Inter, system-ui, -apple-system, Segoe UI, Roboto, sans-serif" font-size="12.5" font-weight="500" fill="#143024">In: brief + upstream out</text></g>
<g><rect x="498.0" y="655.0" width="176.0" height="32" rx="9" fill="#d9e4df" stroke="#a1bcb0" stroke-width="1"/><text x="511.0" y="675.4" font-family="Inter, system-ui, -apple-system, Segoe UI, Roboto, sans-serif" font-size="12.5" font-weight="500" fill="#143024">Out: text / artifact</text></g>
<g><rect x="498.0" y="709.0" width="116.0" height="32" rx="9" fill="#d9e4df" stroke="#a1bcb0" stroke-width="1"/><text x="511.0" y="729.4" font-family="Inter, system-ui, -apple-system, Segoe UI, Roboto, sans-serif" font-size="12.5" font-weight="500" fill="#143024">No structure</text></g>
<g><rect x="258.8" y="790.0" width="158.0" height="32" rx="9" fill="#7B2D8E" stroke="#652574" stroke-width="1"/><text x="274.8" y="810.9" font-family="Inter, system-ui, -apple-system, Segoe UI, Roboto, sans-serif" font-size="14" font-weight="700" fill="#FFFFFF">Dependency rule</text></g>
<g><rect x="498.0" y="756.0" width="198.5" height="46" rx="9" fill="#e7d9eb" stroke="#c4a1cc" stroke-width="1"/><text x="511.0" y="775.0" font-family="Inter, system-ui, -apple-system, Segoe UI, Roboto, sans-serif" font-size="12.5" font-weight="500" fill="#371440">Ready when all upstream</text><text x="511.0" y="791.5" font-family="Inter, system-ui, -apple-system, Segoe UI, Roboto, sans-serif" font-size="12.5" font-weight="500" fill="#371440">done</text></g>
<g><rect x="498.0" y="817.0" width="153.5" height="32" rx="9" fill="#e7d9eb" stroke="#c4a1cc" stroke-width="1"/><text x="511.0" y="837.4" font-family="Inter, system-ui, -apple-system, Segoe UI, Roboto, sans-serif" font-size="12.5" font-weight="500" fill="#371440">Drives the stages</text></g>
<g><rect x="258.8" y="898.0" width="82.4" height="32" rx="9" fill="#E07A5F" stroke="#b8644e" stroke-width="1"/><text x="274.8" y="918.9" font-family="Inter, system-ui, -apple-system, Segoe UI, Roboto, sans-serif" font-size="14" font-weight="700" fill="#FFFFFF">Verify</text></g>
<g><rect x="498.0" y="871.0" width="191.0" height="32" rx="9" fill="#f9e7e2" stroke="#f1c3b7" stroke-width="1"/><text x="511.0" y="891.4" font-family="Inter, system-ui, -apple-system, Segoe UI, Roboto, sans-serif" font-size="12.5" font-weight="500" fill="#65372b">Automated check = done</text></g>
<g><rect x="498.0" y="925.0" width="191.0" height="32" rx="9" fill="#f9e7e2" stroke="#f1c3b7" stroke-width="1"/><text x="511.0" y="945.4" font-family="Inter, system-ui, -apple-system, Segoe UI, Roboto, sans-serif" font-size="12.5" font-weight="500" fill="#65372b">Never the agent's word</text></g>
</g>
</svg>